<svg width="37" height="37" viewBox="0 0 37 37" fill="none" xmlns="http://www.w3.org/2000/svg">
<g clip-path="url(#clip0_15_70)">
<path d="M18.4998 2.20215C9.49859 2.20215 2.20215 9.49859 2.20215 18.4998C2.20215 27.5009 9.49859 34.7974 18.4998 34.7974C27.5009 34.7974 34.7974 27.5009 34.7974 18.4998C34.7974 9.49859 27.5009 2.20215 18.4998 2.20215Z" stroke="white" stroke-width="3" stroke-linecap="round" stroke-linejoin="round"/>
<path d="M5.90332 28.8422C5.90332 28.8422 9.53606 24.2039 18.4998 24.2039C27.4634 24.2039 31.0978 28.8422 31.0978 28.8422M18.4998 18.4998C19.7965 18.4998 21.0401 17.9846 21.957 17.0677C22.8739 16.1508 23.389 14.9072 23.389 13.6105C23.389 12.3138 22.8739 11.0701 21.957 10.1532C21.0401 9.23631 19.7965 8.72119 18.4998 8.72119C17.203 8.72119 15.9594 9.23631 15.0425 10.1532C14.1256 11.0701 13.6105 12.3138 13.6105 13.6105C13.6105 14.9072 14.1256 16.1508 15.0425 17.0677C15.9594 17.9846 17.203 18.4998 18.4998 18.4998Z" stroke="white" stroke-width="3" stroke-linecap="round" stroke-linejoin="round"/>
</g>
<defs>
<clipPath id="clip0_15_70">
<rect width="37" height="37" fill="white"/>
</clipPath>
</defs>
</svg>
