<svg width="25" height="25" viewBox="0 0 25 25" fill="none" xmlns="http://www.w3.org/2000/svg">
<path d="M4.07812 4.07812H5.73592C6.314 4.07812 6.60254 4.07813 6.83296 4.20455C6.92795 4.25684 7.014 4.32396 7.08785 4.40336C7.26627 4.59606 7.33662 4.87644 7.4763 5.43719L7.66185 6.1784C7.76483 6.5903 7.81683 6.79625 7.89635 6.96958C8.03229 7.26534 8.23706 7.52427 8.49355 7.7247C8.75003 7.92513 9.05077 8.06125 9.37062 8.12167C9.55822 8.15634 9.77029 8.15634 10.1954 8.15634" stroke="white" stroke-width="2.03911" stroke-linecap="round"/>
<path d="M18.3519 17.3321H7.69758C7.54975 17.3321 7.47532 17.3321 7.41822 17.326C7.27666 17.3102 7.13998 17.2649 7.01699 17.1931C6.894 17.1212 6.78743 17.0244 6.70414 16.9088C6.62086 16.7933 6.56272 16.6615 6.53346 16.5221C6.5042 16.3827 6.50448 16.2387 6.53427 16.0995C6.55781 16.0092 6.58536 15.9201 6.61685 15.8323C6.66987 15.6753 6.69536 15.5968 6.72493 15.5265C6.87006 15.1788 7.10865 14.8782 7.41424 14.6579C7.71982 14.4377 8.08045 14.3063 8.45613 14.2785C8.53158 14.2734 8.61518 14.2734 8.77933 14.2734H14.2737" stroke="white" stroke-width="2.03911" stroke-linecap="round" stroke-linejoin="round"/>
<path d="M14.8121 14.2736H11.1886C9.94886 14.2736 9.32897 14.2736 8.8508 13.9932C8.64919 13.8746 8.4695 13.7221 8.31961 13.5425C7.96277 13.1164 7.86081 12.5046 7.65792 11.2822C7.45095 10.0434 7.34798 9.42355 7.59369 8.96476C7.69591 8.77329 7.83771 8.60576 8.00967 8.47333C8.42157 8.15625 9.04961 8.15625 10.3057 8.15625H17.0918C18.5702 8.15625 19.3094 8.15625 19.6091 8.63952C19.9079 9.12381 19.5765 9.78448 18.9158 11.1068L18.4601 12.0193C17.9116 13.1164 17.6373 13.6649 17.1449 13.9687C16.6514 14.2736 16.0386 14.2736 14.8121 14.2736Z" stroke="white" stroke-width="2.03911" stroke-linecap="round"/>
<path d="M17.3323 21.4107C17.8954 21.4107 18.3519 20.9542 18.3519 20.3911C18.3519 19.8281 17.8954 19.3716 17.3323 19.3716C16.7692 19.3716 16.3127 19.8281 16.3127 20.3911C16.3127 20.9542 16.7692 21.4107 17.3323 21.4107Z" fill="white"/>
<path d="M9.1758 21.4107C9.73889 21.4107 10.1954 20.9542 10.1954 20.3911C10.1954 19.8281 9.73889 19.3716 9.1758 19.3716C8.61272 19.3716 8.15625 19.8281 8.15625 20.3911C8.15625 20.9542 8.61272 21.4107 9.1758 21.4107Z" fill="white"/>
</svg>
