<svg width="29" height="36" viewBox="0 0 29 36" fill="none" xmlns="http://www.w3.org/2000/svg">
<g clip-path="url(#clip0_15_75)">
<path fill-rule="evenodd" clip-rule="evenodd" d="M0 5.4C0 3.96783 0.572878 2.59432 1.59261 1.58162C2.61234 0.568927 3.99539 0 5.4375 0H23.5625C25.0046 0 26.3877 0.568927 27.4074 1.58162C28.4271 2.59432 29 3.96783 29 5.4V30.6C29 32.0322 28.4271 33.4057 27.4074 34.4184C26.3877 35.4311 25.0046 36 23.5625 36H5.4375C3.99539 36 2.61234 35.4311 1.59261 34.4184C0.572878 33.4057 0 32.0322 0 30.6V5.4ZM5.4375 3.6C5.02983 3.59988 4.63402 3.73626 4.31402 3.9871C3.99402 4.23794 3.76852 4.58859 3.67394 4.9824L5.075 7.3008C6.05182 8.91678 7.43328 10.2541 9.08492 11.1825C10.7366 12.111 12.6021 12.599 14.5 12.599C16.3979 12.599 18.2634 12.111 19.9151 11.1825C21.5667 10.2541 22.9482 8.91678 23.925 7.3008L25.3261 4.9824C25.2315 4.58859 25.006 4.23794 24.686 3.9871C24.366 3.73626 23.9702 3.59988 23.5625 3.6H5.4375ZM3.625 30.6V11.3832C5.76913 13.7541 8.63897 15.3587 11.7921 15.9498C11.7569 16.3239 11.8008 16.7012 11.9208 17.0575C12.0408 17.4138 12.2345 17.7414 12.4892 18.0191C12.744 18.2969 13.0544 18.5188 13.4005 18.6706C13.7466 18.8225 14.1207 18.9009 14.4991 18.9009C14.8774 18.9009 15.2516 18.8225 15.5977 18.6706C15.9438 18.5188 16.2542 18.2969 16.5089 18.0191C16.7637 17.7414 16.9573 17.4138 17.0774 17.0575C17.1974 16.7012 17.2412 16.3239 17.2061 15.9498C20.3599 15.3591 23.2304 13.7544 25.375 11.3832V30.6C25.375 31.0774 25.184 31.5352 24.8441 31.8728C24.5042 32.2104 24.0432 32.4 23.5625 32.4H5.4375C4.9568 32.4 4.49578 32.2104 4.15587 31.8728C3.81596 31.5352 3.625 31.0774 3.625 30.6Z" fill="white"/>
</g>
<defs>
<clipPath id="clip0_15_75">
<rect width="29" height="36" fill="white"/>
</clipPath>
</defs>
</svg>
