<svg width="80" height="80" viewBox="0 0 80 80" fill="none" xmlns="http://www.w3.org/2000/svg">
<path d="M33.3333 10H13.3333C12.4493 10 11.6014 10.3512 10.9763 10.9763C10.3512 11.6014 10 12.4493 10 13.3333V33.3333C10 34.2174 10.3512 35.0652 10.9763 35.6904C11.6014 36.3155 12.4493 36.6667 13.3333 36.6667H33.3333C34.2174 36.6667 35.0652 36.3155 35.6904 35.6904C36.3155 35.0652 36.6667 34.2174 36.6667 33.3333V13.3333C36.6667 12.4493 36.3155 11.6014 35.6904 10.9763C35.0652 10.3512 34.2174 10 33.3333 10ZM30 30H16.6667V16.6667H30V30ZM66.6667 10H46.6667C45.7826 10 44.9348 10.3512 44.3096 10.9763C43.6845 11.6014 43.3333 12.4493 43.3333 13.3333V33.3333C43.3333 34.2174 43.6845 35.0652 44.3096 35.6904C44.9348 36.3155 45.7826 36.6667 46.6667 36.6667H66.6667C67.5507 36.6667 68.3986 36.3155 69.0237 35.6904C69.6488 35.0652 70 34.2174 70 33.3333V13.3333C70 12.4493 69.6488 11.6014 69.0237 10.9763C68.3986 10.3512 67.5507 10 66.6667 10ZM63.3333 30H50V16.6667H63.3333V30ZM33.3333 43.3333H13.3333C12.4493 43.3333 11.6014 43.6845 10.9763 44.3096C10.3512 44.9348 10 45.7826 10 46.6667V66.6667C10 67.5507 10.3512 68.3986 10.9763 69.0237C11.6014 69.6488 12.4493 70 13.3333 70H33.3333C34.2174 70 35.0652 69.6488 35.6904 69.0237C36.3155 68.3986 36.6667 67.5507 36.6667 66.6667V46.6667C36.6667 45.7826 36.3155 44.9348 35.6904 44.3096C35.0652 43.6845 34.2174 43.3333 33.3333 43.3333ZM30 63.3333H16.6667V50H30V63.3333ZM56.6667 43.3333C49.3133 43.3333 43.3333 49.3133 43.3333 56.6667C43.3333 64.02 49.3133 70 56.6667 70C64.02 70 70 64.02 70 56.6667C70 49.3133 64.02 43.3333 56.6667 43.3333ZM56.6667 63.3333C52.99 63.3333 50 60.3433 50 56.6667C50 52.99 52.99 50 56.6667 50C60.3433 50 63.3333 52.99 63.3333 56.6667C63.3333 60.3433 60.3433 63.3333 56.6667 63.3333Z" fill="black"/>
</svg>
