<svg width="40" height="40" viewBox="0 0 40 40" fill="none" xmlns="http://www.w3.org/2000/svg">
<path d="M22.4998 16.667L29.1665 23.3337M29.1665 16.667L22.4998 23.3337M32.6582 30.8337H15.4965C14.6272 30.8336 13.7923 30.4939 13.1698 29.887L4.25317 21.1937C4.09391 21.0384 3.96735 20.8528 3.88093 20.6479C3.79452 20.4429 3.75 20.2227 3.75 20.0003C3.75 19.7779 3.79452 19.5577 3.88093 19.3528C3.96735 19.1478 4.09391 18.9623 4.25317 18.807L13.1698 10.1137C13.7923 9.50678 14.6272 9.16708 15.4965 9.16699H32.6582C34.2415 9.16699 36.3632 10.0687 36.3632 11.8753V28.1253C36.3632 29.932 34.2415 30.8337 32.6582 30.8337Z" stroke="#B4B4B4" stroke-width="2" stroke-linecap="round" stroke-linejoin="round"/>
</svg>
