<svg width="146" height="60" viewBox="0 0 146 60" fill="none" xmlns="http://www.w3.org/2000/svg">
<path fill-rule="evenodd" clip-rule="evenodd" d="M107.879 1.9922C107.634 1.25938 107.108 0.653507 106.416 0.30787C105.723 -0.0377671 104.922 -0.0948569 104.187 0.149159C103.453 0.393175 102.846 0.918309 102.499 1.60904C102.153 2.29976 102.096 3.09951 102.34 3.83233L105.258 12.5671C105.503 13.2999 106.029 13.9058 106.722 14.2514C107.414 14.5971 108.215 14.6542 108.95 14.4102C109.684 14.1661 110.292 13.641 110.638 12.9503C110.985 12.2595 111.042 11.4598 110.797 10.727L107.879 1.9922ZM127.6 10.794C128.132 10.2448 128.426 9.50934 128.419 8.74593C128.413 7.98252 128.106 7.25226 127.565 6.71242C127.024 6.17259 126.292 5.86638 125.527 5.85975C124.762 5.85311 124.024 6.14659 123.474 6.67696L117.638 12.5001C117.106 13.0493 116.812 13.7848 116.818 14.5482C116.825 15.3116 117.132 16.0418 117.673 16.5817C118.214 17.1215 118.946 17.4277 119.711 17.4344C120.476 17.441 121.214 17.1475 121.764 16.6171L127.6 10.794ZM91.4436 14.7071C90.7091 14.4627 89.9074 14.5195 89.2148 14.8648C88.5222 15.2102 87.9955 15.8159 87.7505 16.5487C87.5056 17.2815 87.5624 18.0814 87.9086 18.7724C88.2547 19.4634 88.8618 19.9889 89.5963 20.2333L98.351 23.1449C99.0855 23.389 99.887 23.3319 100.579 22.9862C101.272 22.6406 101.798 22.0347 102.043 21.3019C102.287 20.5691 102.23 19.7693 101.883 19.0786C101.537 18.3879 100.93 17.8627 100.195 17.6187L91.4436 14.7071ZM111.944 20.5594C111.423 20.3703 110.858 20.3334 110.316 20.4532C109.774 20.5729 109.278 20.8443 108.885 21.2354C108.493 21.6266 108.22 22.1214 108.099 22.6618C107.978 23.2021 108.014 23.7657 108.203 24.2863L119.876 56.3138C120.078 56.8679 120.444 57.3477 120.925 57.6898C121.406 58.0319 121.98 58.2201 122.571 58.2295C123.162 58.239 123.742 58.0693 124.234 57.7428C124.726 57.4163 125.107 56.9485 125.327 56.4012L129.521 45.9456L140.983 57.3795C141.253 57.6576 141.575 57.8794 141.931 58.032C142.287 58.1846 142.67 58.2649 143.057 58.2682C143.444 58.2716 143.829 58.1979 144.187 58.0515C144.546 57.9051 144.872 57.6889 145.146 57.4156C145.42 57.1422 145.637 56.8171 145.783 56.4593C145.93 56.1015 146.004 55.7181 146 55.3315C145.997 54.9449 145.917 54.5628 145.764 54.2076C145.611 53.8523 145.388 53.5311 145.11 53.2625L133.647 41.8257L144.129 37.6447C144.679 37.4259 145.149 37.0457 145.477 36.5544C145.804 36.0631 145.975 35.4839 145.966 34.8937C145.956 34.3035 145.767 33.7301 145.423 33.2495C145.08 32.769 144.598 32.404 144.042 32.2029L111.941 20.5565L111.944 20.5594ZM104.255 34.0867C104.533 33.8181 104.756 33.4968 104.909 33.1416C105.061 32.7864 105.142 32.4043 105.145 32.0177C105.149 31.6311 105.075 31.2477 104.928 30.8899C104.781 30.5321 104.565 30.207 104.291 29.9336C104.017 29.6603 103.691 29.4441 103.332 29.2977C102.974 29.1513 102.589 29.0776 102.202 29.081C101.814 29.0843 101.431 29.1646 101.075 29.3172C100.719 29.4698 100.397 29.6916 100.128 29.9697L94.2917 35.7929C94.013 36.0615 93.7907 36.3828 93.6378 36.738C93.4848 37.0932 93.4043 37.4753 93.401 37.8619C93.3976 38.2485 93.4714 38.6319 93.6182 38.9897C93.7649 39.3475 93.9816 39.6726 94.2556 39.946C94.5296 40.2194 94.8554 40.4356 95.214 40.582C95.5727 40.7284 95.9569 40.802 96.3444 40.7987C96.7319 40.7953 97.1148 40.715 97.4709 40.5624C97.8269 40.4098 98.1489 40.188 98.4181 39.9099L104.255 34.0867Z" fill="white"/>
<path d="M79.3355 19.2823C78.8386 18.6083 78.0509 18.2104 77.2135 18.2104C75.7575 18.2104 74.5772 19.3907 74.5772 20.8467V25.5259C74.5772 26.6756 73.6453 27.6075 72.4956 27.6075C71.346 27.6075 70.4141 26.6756 70.4141 25.5259V6.45079C70.4141 4.8074 72.2291 3.8121 73.6148 4.69564C74.2143 5.07792 74.5772 5.73976 74.5772 6.45079V11.7763C74.5772 13.3594 75.8606 14.6427 77.4437 14.6427C78.3787 14.6427 79.255 14.1866 79.7914 13.4208L84.931 6.08321C85.2707 5.59817 85.8257 5.30933 86.4179 5.30933C87.8975 5.30933 88.7556 6.98442 87.8912 8.18527L84.2626 13.226C83.0204 14.9517 83.0062 17.2744 84.2272 19.0152L88.0798 24.5076C88.9951 25.8126 88.0616 27.6075 86.4677 27.6075C85.8422 27.6075 85.2539 27.3103 84.8828 26.8069L79.3355 19.2823Z" fill="white"/>
<path d="M12.03 19.4382C11.4948 18.669 10.6171 18.2104 9.68007 18.2104C8.0991 18.2104 6.81746 19.4921 6.81746 21.073V25.5259C6.81746 26.6756 5.88551 27.6075 4.73588 27.6075C3.58625 27.6075 2.6543 26.6756 2.6543 25.5259V6.45079C2.6543 4.8074 4.46933 3.8121 5.85501 4.69564C6.45453 5.07792 6.81746 5.73976 6.81746 6.45079V11.7763C6.81746 13.3594 8.10081 14.6427 9.68389 14.6427C10.619 14.6427 11.4952 14.1866 12.0317 13.4208L17.1712 6.08321C17.5109 5.59817 18.0659 5.30933 18.6581 5.30933C20.1377 5.30933 20.9959 6.98442 20.1314 8.18527L16.5028 13.226C15.2606 14.9517 15.2464 17.2744 16.4674 19.0152L20.3355 24.5296C21.2443 25.8253 20.3174 27.6075 18.7348 27.6075C18.0948 27.6075 17.4954 27.2943 17.1299 26.7689L12.03 19.4382Z" fill="white"/>
<path d="M66.49 5.30957C67.6576 5.30957 68.6041 6.25609 68.6041 7.42368V25.575C68.6041 26.6976 67.694 27.6078 66.5713 27.6078H65.2371C64.8512 27.6078 64.5385 27.295 64.5385 26.9092C64.5385 26.2338 63.5864 25.8854 63.0466 26.2913C61.5972 27.3813 59.7093 27.9263 57.383 27.9263C54.6943 27.9263 52.5802 27.1087 51.0407 25.4735C49.5012 23.8171 48.7314 21.4811 48.7314 18.4655V7.42368C48.7314 6.25609 49.678 5.30957 50.8456 5.30957C52.0131 5.30957 52.9597 6.25609 52.9597 7.42368V18.3062C52.9597 20.2812 53.4367 21.7784 54.3908 22.7977C55.3665 23.7958 56.7 24.2949 58.3913 24.2949C60.2127 24.2949 61.6655 23.764 62.7496 22.7022C63.8338 21.6191 64.3759 20.0158 64.3759 17.8921V7.42368C64.3759 6.25609 65.3224 5.30957 66.49 5.30957Z" fill="white"/>
<path d="M36.8915 5.30957C38.8646 5.30957 40.5884 5.70244 42.0629 6.48819C43.5374 7.2527 44.6757 8.37823 45.478 9.86477C46.302 11.3513 46.7139 13.1564 46.7139 15.28V25.7959C46.7139 26.9725 45.7601 27.9263 44.5836 27.9263C43.407 27.9263 42.4532 26.9725 42.4532 25.7959V14.8978C42.4532 12.944 41.9545 11.4681 40.9571 10.47C39.9813 9.45066 38.6261 8.94099 36.8915 8.94099C35.1351 8.94099 33.7583 9.45066 32.7608 10.47C31.7634 11.4681 31.2647 12.944 31.2647 14.8978V24.4627C31.2647 26.3756 29.714 27.9263 27.8011 27.9263H26.1053C25.144 27.9263 24.3622 27.1518 24.3533 26.1906L24.3495 25.7783C24.3426 25.0314 24.9461 24.4223 25.693 24.4223C26.435 24.4223 27.0365 23.8208 27.0365 23.0788V15.28C27.0365 13.1564 27.4376 11.3513 28.2399 9.86477C29.0638 8.35699 30.2131 7.22084 31.6875 6.45633C33.1836 5.69183 34.9183 5.30957 36.8915 5.30957Z" fill="white"/>
<path d="M91.4012 43.6785C90.8405 44.541 90.9937 46.3666 91.744 47.0703C91.9193 47.2348 92.0811 47.4102 92.2294 47.5966C92.9727 48.5097 93.3443 49.6565 93.3443 51.0369C93.3443 52.9906 92.6223 54.509 91.1782 55.5921C89.7341 56.6751 87.6424 57.2166 84.9029 57.2166H76.9817C75.5156 57.2166 74.3271 56.0282 74.3271 54.5621V37.573C74.3271 36.1069 75.5156 34.9185 76.9817 34.9185H84.2976C86.8035 34.9185 88.7573 35.4175 90.1589 36.4156C91.5605 37.4137 92.2613 38.8259 92.2613 40.6523C92.2613 41.8203 91.9746 42.829 91.4012 43.6785ZM78.4045 41.7884C78.4045 43.2545 79.593 44.443 81.0591 44.443H83.9472C85.2851 44.443 86.3045 44.1775 87.0053 43.6466C87.7061 43.1157 88.0565 42.3299 88.0565 41.2894C88.0565 40.2488 87.7061 39.463 87.0053 38.9321C86.3045 38.38 85.2851 38.1039 83.9472 38.1039H81.0591C79.593 38.1039 78.4045 39.2924 78.4045 40.7585V41.7884ZM84.7754 54.0312C87.7061 54.0312 89.1714 52.9269 89.1714 50.7183C89.1714 48.5522 87.7061 47.4692 84.7754 47.4692H81.0591C79.593 47.4692 78.4045 48.6576 78.4045 50.1237V51.3766C78.4045 52.8427 79.593 54.0312 81.0591 54.0312H84.7754Z" fill="white"/>
<path d="M33.5322 34.9185C35.4647 34.9185 37.153 35.3113 38.5971 36.0971C40.0411 36.8616 41.156 37.9871 41.9418 39.4737C42.7488 40.9602 43.1523 42.7653 43.1523 44.8889V55.4487C43.1523 56.601 42.2181 57.5352 41.0658 57.5352C39.9135 57.5352 38.9793 56.601 38.9793 55.4487V44.5067C38.9793 42.5529 38.4909 41.077 37.514 40.0789C36.5584 39.0595 35.2311 38.5499 33.5322 38.5499C31.812 38.5499 30.4635 39.0595 29.4867 40.0789C28.5098 41.077 28.0213 42.5529 28.0213 44.5067V54.8806C28.0213 56.3467 26.8329 57.5352 25.3668 57.5352H23.0043C22.0429 57.5352 21.2611 56.7605 21.2524 55.7991L21.2484 55.3591C21.2418 54.6277 21.8328 54.0312 22.5643 54.0312C23.2911 54.0312 23.8803 53.442 23.8803 52.7152V44.8889C23.8803 42.7653 24.2731 40.9602 25.0589 39.4737C25.8659 37.9659 26.9914 36.8297 28.4355 36.0652C29.9008 35.3007 31.5997 34.9185 33.5322 34.9185Z" fill="white"/>
<path d="M9.01048 48.9592C8.51433 48.2452 7.70002 47.8194 6.83059 47.8194H6.73193C5.26586 47.8194 4.07738 49.0079 4.07738 50.474V55.1778C4.07738 56.3038 3.16463 57.2165 2.03869 57.2165C0.912753 57.2165 0 56.3038 0 55.1778V35.9365C0 34.2557 1.91965 33.297 3.26339 34.3067C3.77587 34.6918 4.07738 35.2955 4.07738 35.9365V41.5972C4.07738 43.0632 5.26586 44.2517 6.73193 44.2517H6.9478C7.82289 44.2517 8.64175 43.8204 9.13678 43.0988L14.2152 35.6959C14.5491 35.2092 15.1014 34.9183 15.6916 34.9183C17.1429 34.9183 17.9912 36.5543 17.155 37.7404L12.5959 44.2071C11.956 45.1147 11.9487 46.3245 12.5774 47.2398L17.3519 54.1897C18.2328 55.472 17.3148 57.2165 15.759 57.2165C15.1261 57.2165 14.5333 56.9066 14.1721 56.3868L9.01048 48.9592Z" fill="white"/>
<path d="M71.1415 32.1904H46.9851C45.9631 32.1904 45.127 33.0247 45.127 34.0444V58.1459C45.127 59.1656 45.9631 59.9999 46.9851 59.9999H71.1415C72.1635 59.9999 72.9997 59.1656 72.9997 58.1459V34.0444C72.9997 33.0247 72.1635 32.1904 71.1415 32.1904Z" fill="#005976"/>
<path d="M72.4655 32.7234C72.117 32.399 71.6525 32.1904 71.1415 32.1904H46.9851C45.9631 32.1904 45.127 33.0247 45.127 34.0444V58.1459C45.127 58.6557 45.336 59.1192 45.6612 59.4668L49.5634 55.5735H67.2161C67.9826 55.5735 68.5865 54.9478 68.5865 54.2062V36.5936L72.4655 32.7234Z" fill="#6094AC"/>
<path opacity="0.5" d="M53.4195 34.2527C53.4195 33.7197 53.0479 33.5575 50.911 33.627C49.1225 33.6965 48.2398 33.9051 47.7056 34.554C47.1714 35.2029 47.032 36.5238 47.0088 38.0997C47.0088 39.2121 47.0088 40.2549 47.5895 40.2549C48.3792 40.2549 48.3792 38.4241 49.0296 37.4045C50.2838 35.3883 53.4195 34.948 53.4195 34.2527Z" fill="#B4E1ED"/>
<path d="M58.4 37.5728C59.7373 37.5728 60.9038 37.8494 61.8996 38.4028C62.8954 38.9561 63.6636 39.7786 64.2042 40.8704C64.759 41.9471 65.0364 43.2557 65.0364 44.7961V52.113C65.0364 52.879 64.4154 53.5 63.6494 53.5C62.8834 53.5 62.2624 52.879 62.2624 52.113V51.4811C62.2624 50.366 61.3584 49.4621 60.2434 49.4621H56.514C55.399 49.4621 54.495 50.366 54.495 51.4811V52.1343C54.495 52.8886 53.8836 53.5 53.1294 53.5C52.3751 53.5 51.7637 52.8886 51.7637 52.1343V44.7961C51.7637 43.2557 52.034 41.9471 52.5745 40.8704C53.1294 39.7786 53.9047 38.9561 54.9005 38.4028C55.8963 37.8494 57.0628 37.5728 58.4 37.5728ZM59.7723 47.017C61.1475 47.017 62.2624 45.9021 62.2624 44.5269C62.2624 43.0763 61.9209 41.9845 61.2381 41.2517C60.5553 40.504 59.6021 40.1301 58.3787 40.1301C57.1553 40.1301 56.2021 40.504 55.5193 41.2517C54.8365 41.9845 54.495 43.0763 54.495 44.5269C54.495 45.9021 55.6099 47.017 56.9851 47.017H59.7723Z" fill="#D4F4FF"/>
</svg>
