<svg width="35" height="36" viewBox="0 0 35 36" fill="none" xmlns="http://www.w3.org/2000/svg">
<g clip-path="url(#clip0_15_67)">
<path d="M22.108 22.2109L32.9163 33.0695M13.8388 2.09278C20.3155 2.09278 25.543 7.37055 25.543 13.9033C25.5451 15.448 25.2438 16.978 24.6563 18.4056C24.0689 19.8332 23.2068 21.1302 22.1196 22.2226C21.0323 23.3149 19.7413 24.1809 18.3203 24.7711C16.8993 25.3613 15.3764 25.664 13.8388 25.6619C7.33635 25.6619 2.08302 20.4109 2.08302 13.9033C2.08115 12.3518 2.38395 10.8152 2.97408 9.38139C3.5642 7.94763 4.43006 6.6449 5.52206 5.54782C6.61406 4.45074 7.91076 3.58086 9.33788 2.98799C10.765 2.39512 12.2945 2.09091 13.8388 2.09278Z" stroke="white" stroke-width="4" stroke-linecap="round" stroke-linejoin="round"/>
</g>
<defs>
<clipPath id="clip0_15_67">
<rect width="35" height="36" fill="white"/>
</clipPath>
</defs>
</svg>
