<svg width="60" height="60" viewBox="0 0 60 60" fill="none" xmlns="http://www.w3.org/2000/svg">
<g clip-path="url(#clip0_572_2)">
<path d="M5.31436 28.0285L54.6001 5.61425M51.1715 14.8285L54.6001 5.61425L45.3858 2.14282M56.7858 57.9H46.0715V27.9C46.0715 27.3316 46.2973 26.7866 46.6991 26.3847C47.101 25.9829 47.646 25.7571 48.2144 25.7571H54.6429C55.2113 25.7571 55.7563 25.9829 56.1582 26.3847C56.56 26.7866 56.7858 27.3316 56.7858 27.9V57.9ZM35.3572 57.9H24.6429V34.3285C24.6429 33.7602 24.8687 33.2152 25.2706 32.8133C25.6724 32.4114 26.2175 32.1857 26.7858 32.1857H33.2144C33.7827 32.1857 34.3277 32.4114 34.7296 32.8133C35.1315 33.2152 35.3572 33.7602 35.3572 34.3285V57.9ZM13.9286 57.9H3.21436V40.7571C3.21436 40.1888 3.44012 39.6437 3.84198 39.2419C4.24385 38.84 4.78889 38.6143 5.35721 38.6143H11.7858C12.3541 38.6143 12.8991 38.84 13.301 39.2419C13.7029 39.6437 13.9286 40.1888 13.9286 40.7571V57.9Z" stroke="black" stroke-width="4.28571" stroke-linecap="round" stroke-linejoin="round"/>
</g>
<defs>
<clipPath id="clip0_572_2">
<rect width="60" height="60" fill="white"/>
</clipPath>
</defs>
</svg>
